<svg width="650" height="651" xmlns="http://www.w3.org/2000/svg" xmlns:xlink="http://www.w3.org/1999/xlink" xml:space="preserve" overflow="hidden"><defs><clipPath id="clip0"><rect x="-641" y="36" width="650" height="651"/></clipPath><clipPath id="clip1"><rect x="-641" y="36" width="650" height="651"/></clipPath></defs><g clip-path="url(#clip0)" transform="translate(641 -36)"><g clip-path="url(#clip1)"><path d="M0 75.0003 99.3594 75.0003 99.6139 74.4932 79.511 38.1924 136.224 1.54539 137 0 37.6404 0 0 75.0003Z" fill="#CEEF11" fill-rule="evenodd" fill-opacity="1" transform="matrix(6.12323e-17 1 1 -6.12323e-17 -203 478)"/><path d="M-337.728 39.1585C-330.564 39.4961-323.441 40.3721-316.548 41.7776-309.613 43.1896-310.692 42.8365-239.86 66.8125-209.577 77.0612-174.01 89.1006-160.815 93.5605-147.619 98.0272-111.519 110.323-80.5882 120.886-49.6574 131.449-18.2707 142.115-10.8351 144.58 1.34611 148.623 2.96417 149.374 5.4426 152.114 9.77728 156.914 10.1753 162.985 6.50209 168.408 4.6079 171.206 3.83099 171.636-12.1642 178.682-18.0008 181.256-29.3278 186.371-37.3289 190.054-75.233 207.484-120.329 228.149-127.778 231.505-132.324 233.552-146.656 240.169-159.633 246.214-172.61 252.259-191.9 261.224-202.501 266.147L-221.771 275.086-228.154 281.395C-233.49 286.676-235.121 288.935-238.119 295.18-243.629 306.648-244.386 311.473-244.046 332.696-243.719 352.873-243.128 355.401-237.265 361.472-231.987 366.933-226.202 368.859-219.087 367.511-214.618 366.664-212.569 365.682-133.679 326.6-105.56 312.674-77.2492 298.709-70.7573 295.571-60.1303 290.424-49.5163 285.252-38.9019 280.073-10.9954 266.442-6.56474 264.523-3.0077 264.523 1.37818 264.523 5.186 266.853 7.2855 270.819 9.48171 274.971 9.55894 278.571 7.53595 282.53 4.762 287.966 3.41384 288.768-28.2875 303.824-41.7466 310.222-56.509 317.378-80.9798 329.378-93.9571 335.738-115.725 346.346-129.351 352.95-142.977 359.553-163.685 369.642-175.365 375.366-205.801 390.281-218.997 396.583-222.33 397.789-227.454 399.65-236.315 400.504-242.036 399.695-244.791 399.304-256.009 395.554-275.06 388.672L-285.741 384.743-287.285 374.538C-290.615 363.838-298.553 355.167-308.78 350.844L-314.198 349.75-314.198 279.298-308.78 278.205C-295.144 272.441-285.577 258.947-285.577 243.22-285.577 222.25-302.586 205.251-323.568 205.251-344.549 205.251-361.558 222.25-361.558 243.22-361.558 258.947-351.991 272.441-338.355 278.205L-334.891 278.904-334.891 350.145-338.355 350.844C-341.764 352.285-344.919 354.209-347.733 356.53L-351.18 360.322-355.081 358.854C-410.913 337.689-452.818 322.088-485.643 310.235-509.215 301.732-526.79 295.295-569.806 279.424-581.698 275.035-593.731 270.645-596.543 269.67-615.987 262.906-628.643 250.424-634.839 231.903-636.779 226.102-636.952 224.568-636.997 212.246-637.055 197.498-636.239 191.813-632.534 181.198-626.762 164.667-613.881 148.051-603.228 143.405-597.616 140.954-571.353 129.293-556.43 122.625-537.693 114.257-518.943 105.895-500.194 97.5392-493.708 94.6515-486.17 91.244-483.447 89.973-480.725 88.696-478.323 87.6565-478.111 87.6565-477.893 87.6565-474.284 86.0971-470.085 84.1975-465.879 82.2914-455.894 77.8442-447.893 74.308-440.746 71.1504-433.6 67.9803-426.459 64.7971-421.874 62.7436-417.29 60.703-412.699 58.662-408.91 56.9807-402.63 54.1892-398.739 52.4566-394.841 50.7237-388.799 48.035-385.306 46.4881-378.101 43.292-368.046 40.7122-359.159 39.7688-352.099 39.0215-344.893 38.8206-337.728 39.1585Z" fill="#822CFA" fill-rule="evenodd" fill-opacity="1"/><path d="M-4.0003 383.196C1.19949 383.625 3.93144 385.452 6.31586 390.107 8.46294 394.294 8.55939 398.814 6.59216 403.045 3.81546 409.033-0.124403 411.675-34.4286 430.531-81.6714 456.509-160.082 500.292-200.158 523.078-213.148 530.464-226.074 537.657-228.889 539.061-238.46 543.832-250.898 545.325-259.652 542.755-260.828 542.412-264.467 541.036-269.38 539.097L-286.194 532.288-285.398 528.357C-285.398 512.645-294.975 499.164-308.625 493.405L-314.049 492.313-314.049 421.929-308.625 420.837C-301.8 417.958-295.993 413.148-291.893 407.094L-291.43 405.58-272.363 412.732C-262.872 416.204-256.278 418.509-254.87 418.811-252.061 419.413-247.6 419.913-244.965 419.92-242.33 419.926-239.977 420.131-239.726 420.375-239.482 420.625-240.106 422.85-241.115 425.331-244.83 434.448-245.575 440.955-245.267 461.702-245.016 478.859-244.817 481.25-243.3 485.29-240.26 493.426-235.864 497.599-228.626 499.215-222.449 500.6-218.728 498.933-185.195 479.776-150.929 460.196-136.19 451.918-93.0806 428.017-17.717 386.247-10.5695 382.651-4.0003 383.196ZM-603.825 288C-602.424 288-590.25 292.385-563.498 302.528-547.757 308.484-532.009 314.428-516.255 320.345-500.109 326.417-483.969 332.507-467.836 338.63-452.236 344.561-436.617 350.459-420.991 356.326-406.922 361.615-386.192 369.463-374.937 373.764L-359.546 379.65-361.456 385.885C-361.456 401.597-351.879 415.078-338.23 420.837L-334.762 421.535-334.762 492.707-338.23 493.405C-341.642 494.845-344.8 496.767-347.617 499.087L-352.96 504.952-355.289 503.998C-429.37 473.899-514.77 439.83-563.498 421.048-584.066 413.117-603.902 405.116-607.585 403.269-612.746 400.673-615.825 398.378-621.051 393.229-632.935 381.509-638.2 369.899-638.894 353.896-639.331 343.734-638.463 337.13-635.449 327.725-630.551 312.427-620.427 298.034-609.629 291.02-607.071 289.359-604.461 288-603.825 288Z" fill="#6618D7" fill-rule="evenodd" fill-opacity="1"/><path d="M-603.112 428-599.056 429.592C-590.508 432.954-506.375 466.814-494.779 471.563-471.863 480.946-399.287 510.673-387.877 515.358-381.154 518.114-373.562 521.222-365.713 524.433L-360.6 526.522-361.333 528.92C-361.333 549.89-344.334 566.89-323.364 566.89-312.879 566.89-303.387 562.64-296.516 555.769L-294.855 553.305-288.963 555.692C-257.406 568.442-257.584 567.958-247.566 567.739-238.563 567.546-239.101 566.776-241.726 576.094-243.286 581.626-243.543 584.687-243.838 601.483-244.114 617.155-243.94 621.609-242.888 626.332-241.264 633.629-238.132 638.615-233.454 641.362-230.271 643.23-229.186 643.448-224.476 643.178-219.195 642.883-218.964 642.774-207.014 634.925-194.577 626.768-173.566 613.548-128.086 585.265L-89.5684 561.314C-63.7125 545.238-29.4625 524.958-18.7389 519.375-9.56209 514.6-7.01441 513.605-3.95969 513.605 2.99043 513.605 8.23356 518.386 8.90076 525.337 9.69675 533.609 5.83345 538.564-7.45082 546.304-50.7492 571.538-83.363 591.022-141.447 626.364-181.672 650.841-188.532 655.038-207.053 666.5-231.073 681.376-236.406 683.007-260.927 683-276.265 682.994-278.03 682.846-285.821 680.869-290.428 679.701-298.739 676.755-304.29 674.323-365.166 647.664-552.273 568.387-587.146 554.486-604.582 547.529-608.824 545.302-615.382 539.661-625.336 531.087-632.19 519.689-635.514 506.167-637.022 500.013-637.195 497.67-636.849 487.691-636.393 474.406-634.763 467.141-630.027 457.233-623.905 444.423-615.113 433.981-607.078 429.977Z" fill="#40069B" fill-rule="evenodd" fill-opacity="1"/><path d="M-345 243.5C-345 231.626-335.374 222-323.5 222-311.626 222-302 231.626-302 243.5-302 255.374-311.626 265-323.5 265-335.374 265-345 255.374-345 243.5Z" fill="#822CFA" fill-rule="evenodd" fill-opacity="1"/><path d="M-345 386C-345 373.85-335.374 364-323.5 364-311.626 364-302 373.85-302 386-302 398.15-311.626 408-323.5 408-335.374 408-345 398.15-345 386Z" fill="#6618D7" fill-rule="evenodd" fill-opacity="1"/><path d="M-345 528.5C-345 516.626-335.374 507-323.5 507-311.626 507-302 516.626-302 528.5-302 540.374-311.626 550-323.5 550-335.374 550-345 540.374-345 528.5Z" fill="#40069B" fill-rule="evenodd" fill-opacity="1"/></g></g></svg>